<svg width="153" height="42" viewBox="0 0 153 42" fill="none" xmlns="http://www.w3.org/2000/svg">
<path d="M28.5137 0C34.2302 0 39.5735 0 45.0723 0C45.0723 13.3804 45.0723 26.6793 45.0723 39.9781C44.9997 40.01 44.9306 40.0455 44.858 40.0774C39.4422 26.7999 34.0263 13.5223 28.5137 0Z" fill="#A9A9A9"/>
<path d="M0 39.7935C0 26.5904 0 13.3838 0 0.0529785C5.4608 0.0529785 10.8456 0.0529785 16.569 0.0529785C11.1255 13.3838 5.73038 26.6081 0.331795 39.8325C0.221197 39.8183 0.110598 39.8077 0 39.7935Z" fill="#A9A9A9"/>
<path d="M119.491 7.46167C120.628 7.46167 121.814 7.46167 123.245 7.46167C123.245 9.92284 123.245 12.3698 123.245 14.9693C124.268 14.87 125.038 14.7565 125.809 14.7282C129.901 14.5721 132.763 16.3843 133.973 19.8668C135.252 23.5444 134.052 27.9774 131.097 30.2506C127.717 32.8465 123.946 32.8678 120.075 31.8003C119.733 31.7046 119.294 31.0911 119.291 30.7152C119.256 23.1011 119.28 15.4871 119.301 7.87305C119.305 7.7702 119.395 7.66736 119.491 7.46167ZM123.359 28.9101C124.327 28.9101 125.014 28.9668 125.688 28.8994C128.816 28.5909 130.738 25.7893 130.278 22.2465C129.905 19.3633 127.721 17.7816 124.644 18.2887C124.171 18.3667 123.424 18.959 123.411 19.3313C123.317 22.438 123.359 25.5481 123.359 28.9101Z" fill="#A9A9A9"/>
<path d="M91.5132 14.3486C91.5132 12.2279 91.5132 9.94405 91.5132 7.50415C92.8404 7.50415 94.0052 7.50415 95.3289 7.50415C95.3807 7.98291 95.481 8.48649 95.4844 8.99362C95.5293 16.0225 95.5743 23.0514 95.5535 30.0803C95.5535 30.5165 95.1112 31.1903 94.7241 31.3428C91.8105 32.4847 88.814 32.8996 85.769 31.9279C82.4684 30.8747 80.5917 28.1298 80.4465 24.2784C80.291 20.1788 82.1573 16.8559 85.6619 15.5686C87.4107 14.9231 89.3358 14.7848 91.5132 14.3486ZM91.5513 23.4947C91.5513 22.14 91.6377 20.7782 91.5029 19.4377C91.4579 18.9837 90.8946 18.2815 90.4937 18.2213C88.496 17.9269 86.6607 18.473 85.4925 20.2498C84.1654 22.2677 84.193 24.4948 85.2679 26.619C86.2391 28.5412 88.0259 28.9242 89.9614 28.8958C91.0743 28.8816 91.6584 28.4667 91.5755 27.2006C91.4891 25.9736 91.5547 24.7324 91.5513 23.4947Z" fill="#A9A9A9"/>
<path d="M78.9428 31.9278C74.8299 32.4385 74.906 32.4101 73.5719 28.8035C72.3829 25.5834 73.3714 26.1118 69.7735 26.0799C68.0592 26.0657 65.9579 25.5656 64.7378 26.3884C63.6215 27.1438 63.4141 29.3673 62.8922 30.9738C62.6088 31.8391 62.1733 32.208 61.2713 32.1193C60.4798 32.0413 59.678 32.1016 58.5547 32.1016C61.1607 24.4485 63.6906 17.0295 66.3104 9.34103C67.5097 9.34103 68.9302 9.30202 70.3438 9.37294C70.6479 9.38713 71.0972 9.73467 71.2044 10.0326C73.7862 17.2636 76.3299 24.5088 78.9428 31.9278ZM71.5327 22.2711C70.5339 19.1254 69.618 16.2422 68.5327 12.8342C67.4648 16.2635 66.5592 19.1786 65.595 22.2711C67.6583 22.2711 69.4625 22.2711 71.5327 22.2711Z" fill="#A9A9A9"/>
<path d="M15.2578 32.7968C17.729 26.8495 20.0654 21.2392 22.5573 15.2458C26.1725 24.0266 29.6218 32.4031 33.1748 41.0279C30.9282 41.0279 28.9789 41.0846 27.0365 40.9818C26.6287 40.9605 26.0792 40.4179 25.8925 39.9782C25.0354 37.9816 24.3545 35.907 23.449 33.9352C23.2105 33.4139 22.4156 32.8854 21.8453 32.85C19.7854 32.7152 17.7152 32.7968 15.2578 32.7968Z" fill="#A9A9A9"/>
<path d="M115.553 23.4167C115.577 28.754 112.276 32.4387 107.465 32.4387C102.627 32.4387 99.3294 28.9242 99.2741 23.7005C99.2188 18.4873 102.616 14.7423 107.424 14.7104C112.307 14.6785 115.529 18.1291 115.553 23.4167ZM111.426 23.7253C111.44 20.3279 110.04 18.2781 107.628 18.1504C105.222 18.0227 103.515 19.9236 103.363 22.9025C103.183 26.417 104.752 28.8214 107.296 28.9278C109.805 29.0342 111.416 27.0057 111.426 23.7253Z" fill="#A9A9A9"/>
<path d="M141.449 24.4873C141.988 28.5408 143.816 29.2358 150.767 28.3422C151.282 31.314 151.05 31.7644 148.233 32.2183C144.68 32.7928 141.176 32.6191 138.909 29.2571C136.569 25.7817 136.755 22.0084 138.698 18.3733C140.391 15.2064 144.466 13.8269 147.87 15.1142C150.902 16.2597 152.778 19.8096 152.073 23.3276C151.987 23.7674 151.188 24.3348 150.694 24.3631C148.458 24.4979 146.211 24.4624 143.972 24.4837C143.18 24.4944 142.385 24.4873 141.449 24.4873ZM141.591 21.4409C143.803 21.4409 146.004 21.4409 148.202 21.4409C148.23 19.3238 147.169 18.0719 145.334 17.9513C143.308 17.8166 141.888 19.1145 141.591 21.4409Z" fill="#A9A9A9"/>
</svg>
