<svg width="127" height="42" viewBox="0 0 127 42" fill="none" xmlns="http://www.w3.org/2000/svg">
<path d="M27.0183 3.55301C29.8601 0.174808 34.5841 -0.0816445 37.1205 4.09125C38.4473 1.91932 40.3079 0.865013 42.7795 0.985324C45.8064 1.13413 47.8213 2.733 48.0496 5.83259C48.3212 9.50208 48.2224 13.2032 48.2687 16.8917C48.2903 18.5792 48.2656 20.2667 48.2841 21.9543C48.2996 23.1669 47.883 23.8159 46.5624 23.7684C42.1469 23.6006 42.3536 24.6391 42.3536 19.4436C42.3536 16.173 42.3567 12.9024 42.3382 9.63188C42.3259 7.5676 41.7365 6.6906 40.3696 6.63044C38.9533 6.56712 37.9351 7.69108 37.8981 9.62872C37.824 13.4787 37.8456 17.3286 37.8271 21.1786C37.8147 23.6513 37.7253 23.7431 35.2969 23.7399C31.8565 23.7336 31.8688 24.1832 31.8843 20.2098C31.8997 16.7302 31.8904 13.2475 31.838 9.76803C31.8287 9.05566 31.7207 8.26414 31.406 7.64675C30.6562 6.18719 28.7709 6.1397 28.0736 7.61509C27.62 8.57125 27.4163 9.73003 27.3916 10.8065C27.3052 14.4443 27.3176 18.0853 27.3608 21.7231C27.3793 23.1795 26.9072 23.8064 25.386 23.7653C21.0816 23.6449 21.6 24.2148 21.5599 19.8773C21.5074 14.3873 21.5043 8.90052 21.4457 3.41687C21.4303 2.00797 21.8499 1.17212 23.3958 1.33992C23.9543 1.40008 24.5282 1.38425 25.0898 1.34309C26.3796 1.24494 27.2528 1.60904 27.0183 3.55301Z" fill="#A9A9A9"/>
<path d="M49.5762 41.7393C36.1693 41.5366 24.5274 37.2909 14.5301 28.4671C14.2956 28.2613 13.9747 28.0935 13.8574 27.8307C13.663 27.4001 13.6044 26.9093 13.4902 26.4408C13.9592 26.3838 14.5116 26.14 14.8849 26.3078C16.15 26.8777 17.3503 27.6059 18.5845 28.2486C26.5145 32.3803 34.9474 34.6947 43.7783 35.5401C55.0808 36.6197 66.0069 35.043 76.5411 30.6453C77.5223 30.2337 78.8615 29.4137 79.5341 30.8733C80.1451 32.1967 78.7689 32.7476 77.9142 33.3396C71.021 38.0919 63.3132 40.4633 55.1456 41.4131C53.211 41.6379 51.2516 41.6474 49.5762 41.7393Z" fill="#A9A9A9"/>
<path d="M12.735 21.7837C11.1027 22.5214 9.68028 23.4807 8.13441 23.7973C4.12932 24.6205 1.54051 23.5314 0.423527 20.0993C-0.79528 16.3507 0.670374 12.4406 4.12623 10.9684C5.80479 10.2528 7.67465 9.96155 9.48589 9.65444C10.6183 9.46131 11.6859 9.53096 11.4391 7.82445C11.2231 6.33322 10.1832 5.22193 8.86569 5.5797C8.01098 5.81082 6.93411 6.38071 6.58544 7.11524C5.90353 8.54315 4.95317 8.68879 3.69425 8.46716C3.44123 8.42283 3.1913 8.35635 2.93828 8.31519C0.537694 7.90676 0.170509 6.98227 1.44486 4.72485C3.33323 1.38781 7.45558 0.396824 11.0626 0.843241C12.1179 0.973051 13.1917 1.27066 14.1667 1.70758C16.521 2.76189 17.3973 4.84833 17.459 7.32737C17.5238 9.96155 17.348 12.6116 17.53 15.2362C17.6257 16.5818 18.2706 17.8894 18.6809 19.2065C18.7426 19.3996 18.9617 19.5611 18.9772 19.7511C19.1654 21.9198 17.1165 22.3029 16.0644 23.4617C15.3855 24.2089 14.5432 23.7847 13.9137 23.0913C13.4663 22.5942 13.0189 22.0971 12.735 21.7837ZM11.7939 15.48C11.4113 14.5239 11.3249 13.6722 10.8775 13.3398C10.1462 12.8015 7.49877 13.6342 7.06988 14.6885C6.61938 15.7871 6.43116 17.2087 6.69344 18.3517C6.99274 19.6434 8.78238 19.9537 9.70188 18.9089C10.5689 17.9179 11.112 16.6261 11.7939 15.48Z" fill="#A9A9A9"/>
<path d="M63.507 21.5807C63.1336 21.8751 62.7448 22.1981 62.3406 22.4957C59.7179 24.4428 56.839 24.6296 54.0188 23.2682C50.2667 21.4604 50.1495 14.7736 53.6763 11.8672C55.6295 10.2588 58.0115 10.0752 60.3257 9.63823C61.165 9.47993 62.4856 9.89469 62.5072 8.52694C62.5196 7.64994 62.0938 6.43733 61.452 5.95292C60.4831 5.22155 59.1841 5.35136 58.2028 6.32018C57.8758 6.64312 57.632 7.06105 57.3975 7.4663C56.7156 8.63459 52.7969 8.86255 52.0687 7.71326C51.8558 7.37449 51.8435 6.7761 51.9607 6.36451C52.4513 4.65166 53.2968 3.16993 54.8858 2.26127C58.2028 0.364788 61.6371 0.219148 65.1176 1.67238C67.2776 2.57471 68.3915 4.28756 68.4254 6.71594C68.4655 9.51159 68.4161 12.3136 68.6383 15.0934C68.7525 16.4991 69.2585 17.9175 69.8232 19.2188C70.2212 20.137 70.286 20.7923 69.5424 21.4572C69.5023 21.492 69.4652 21.5269 69.4282 21.5617C66.5648 24.3035 66.5648 24.3035 63.507 21.5807ZM61.3995 13.2539C59.039 13.2824 57.2741 14.8243 57.2988 16.7556C57.3204 18.4146 58.1843 19.4721 59.4988 19.4341C61.2452 19.3866 62.606 17.2685 62.6183 14.6501C62.6214 13.7066 62.4023 13.0766 61.3995 13.2539Z" fill="#A9A9A9"/>
<path d="M115.611 4.00272C117.089 1.47302 118.953 0.817641 121.227 0.994942C123.584 1.18174 125.318 2.46084 125.972 4.7974C126.241 5.74723 126.389 6.76354 126.401 7.75135C126.457 12.4403 126.423 17.1324 126.478 21.8214C126.494 23.2303 126 23.7875 124.575 23.7527C120.141 23.6451 120.656 24.272 120.634 19.6811C120.619 16.5182 120.65 13.3553 120.607 10.1956C120.594 9.41988 120.471 8.61253 120.221 7.88433C119.672 6.27913 117.749 5.98468 116.839 7.42525C116.336 8.2231 115.987 9.26157 115.957 10.2082C115.839 13.998 115.876 17.7973 115.845 21.5903C115.83 23.5406 115.617 23.8034 113.701 23.7369C109.909 23.6039 109.89 24.7057 109.912 19.8363C109.937 14.5141 109.896 9.18875 109.906 3.86658C109.912 1.48252 110.06 1.35271 112.328 1.35271C112.535 1.35271 112.741 1.37171 112.945 1.34954C114.494 1.18491 115.756 1.41603 115.611 4.00272Z" fill="#A9A9A9"/>
<path d="M99.1111 0.969647C101.826 0.896827 104.153 2.51153 105.844 5.34517C108.087 9.1033 108.115 17.1198 105.076 20.9539C101.172 25.874 93.449 25.1205 90.851 19.3551C88.87 14.9542 88.8392 10.4805 90.6998 6.04487C92.1562 2.57485 94.8561 0.969647 99.1111 0.969647ZM101.37 12.8108C101.206 11.2626 101.095 9.73969 100.87 8.2358C100.672 6.91554 100.145 5.76942 98.6051 5.69027C97.0962 5.61428 96.368 6.6116 96.0533 7.93819C95.3189 11.0093 95.4855 14.1025 96.1489 17.1546C96.4143 18.3831 97.0839 19.4754 98.5372 19.3899C99.9195 19.3076 100.611 18.2564 100.861 17.0122C101.138 15.6349 101.209 14.2102 101.37 12.8108Z" fill="#A9A9A9"/>
<path d="M79.9565 6.25373C77.7843 6.25373 76.0965 6.24107 74.4056 6.26007C73.3194 6.27273 72.7764 5.77249 72.8072 4.6422C72.8165 4.32559 72.8011 4.00898 72.8011 3.69554C72.8103 1.49512 72.9461 1.34631 75.0535 1.34315C78.5958 1.33681 82.1381 1.37797 85.6803 1.31782C87.0164 1.29565 87.6273 1.66609 87.6366 3.1858C87.6458 4.69286 87.2817 5.9213 86.4178 7.1339C84.3936 9.96755 82.4775 12.8772 80.4626 15.8375C82.3756 16.2965 84.1159 16.6163 85.7914 17.1419C87.8279 17.7783 88.8862 20.6594 87.7538 22.5115C87.5471 22.8535 86.5659 23.015 86.1123 22.8282C83.1285 21.5997 80.0923 21.0836 76.9358 21.8498C75.8465 22.1126 74.8036 22.5844 73.7483 22.9833C72.7023 23.3791 72.2457 23.0435 72.1346 21.8847C71.8569 19.0099 72.6437 16.5752 74.4179 14.2987C76.331 11.845 77.9633 9.17602 79.9565 6.25373Z" fill="#A9A9A9"/>
<path d="M86.0808 27.1246C85.8247 31.288 84.6491 34.5396 82.3781 37.3574C82.1498 37.6392 81.906 37.9621 81.5975 38.1077C81.1748 38.3072 80.6872 38.3547 80.2244 38.4687C80.1874 37.9748 80.0115 37.4397 80.1411 36.9996C80.7644 34.8878 81.4339 32.7856 82.156 30.7054C82.6589 29.2522 82.1405 28.2961 80.7644 28.1979C78.6847 28.0491 76.5834 28.2422 74.4914 28.2074C73.7354 28.1947 72.9794 27.9478 72.2266 27.8085C72.8067 27.2133 73.2911 26.4186 73.9884 26.0576C77.2376 24.3669 80.7212 24.3385 84.2202 24.902C85.6489 25.13 86.4203 26.0418 86.0808 27.1246Z" fill="#A9A9A9"/>
</svg>
