<svg width="40" height="42" viewBox="0 0 40 42" fill="none" xmlns="http://www.w3.org/2000/svg">
<path d="M4.43032 29.9661C4.50056 30.0083 4.57214 29.994 4.64048 29.9942C5.89687 29.9952 7.15326 29.9954 8.40965 29.9946C8.6733 29.9944 8.63694 30.0028 8.71861 29.7732C9.60075 27.2912 10.4812 24.8086 11.3624 22.3263C12.235 19.8686 13.108 17.4112 13.981 14.9537C14.0545 14.7466 14.0548 14.7458 14.2599 14.7457C15.1799 14.7453 16.1001 14.7451 17.0201 14.7458C17.228 14.746 17.2303 14.7486 17.1593 14.9492C16.4702 16.8938 15.7805 18.8383 15.0902 20.7826C14.0331 23.7602 12.9753 26.7375 11.9184 29.7151C11.8177 29.9987 11.7947 29.995 12.1116 29.995C13.3299 29.995 14.5483 29.9958 15.7666 29.9962C15.8047 29.9962 15.8427 29.9966 15.8808 29.9958C16.0616 29.9927 16.0637 29.9933 16.1254 29.8198C16.415 29.007 16.7034 28.1939 16.9918 27.3806C18.3367 23.5893 19.6814 19.798 21.0265 16.0067C21.1613 15.6271 21.2772 15.2447 21.3164 14.838C21.4188 13.7795 20.9347 12.7002 19.7686 12.2506C19.4394 12.1239 19.0979 12.0508 18.7458 12.0494C17.5973 12.0449 16.4488 12.0444 15.3004 12.0432C14.9747 12.0428 15.0105 12.043 15.1096 11.7633C16.4013 8.1183 17.6942 4.47368 18.9868 0.829059C19.0041 0.780232 19.0227 0.731796 19.0406 0.682969C19.1069 0.503482 19.1067 0.503482 19.3007 0.497428C22.4474 0.398993 25.4587 1.00054 28.3242 2.34484C30.2968 3.2702 32.0742 4.49731 33.6572 6.01856C35.2684 7.56695 36.5987 9.33741 37.6411 11.3352C38.5851 13.1443 39.248 15.0556 39.6298 17.0696C39.8069 18.0034 39.918 18.9449 39.9691 19.8953C40.0026 20.5201 40.0098 21.1449 39.9866 21.7691C39.9321 23.2431 39.7317 24.6967 39.3715 26.1262C38.6594 28.9525 37.4188 31.5094 35.6442 33.79C33.7334 36.246 31.3957 38.1585 28.6351 39.5217C26.8858 40.3855 25.05 40.9689 23.1313 41.2765C22.2593 41.4164 21.3828 41.5033 20.4996 41.5177C20.2205 41.5222 19.9414 41.539 19.6625 41.5252C19.4126 41.5127 19.4122 41.5078 19.4958 41.272C19.8295 40.3301 20.1638 39.3885 20.4979 38.4467C21.4719 35.7011 22.4458 32.9555 23.4201 30.2099C23.4961 29.9958 23.4968 29.9948 23.7148 29.9948C25.4789 29.9944 27.2428 29.9954 29.0069 29.9942C30.019 29.9935 30.7709 29.5069 31.3327 28.6714C31.438 28.5148 31.5048 28.3384 31.5678 28.1607C32.8263 24.6141 34.0846 21.0675 35.3429 17.521C35.5576 16.9157 35.7758 16.3116 35.9852 15.7044C36.1702 15.1681 36.2492 14.6169 36.1359 14.0531C35.9471 13.1127 35.3789 12.5172 34.5072 12.2098C34.2175 12.1076 33.9174 12.0516 33.611 12.0498C32.7608 12.0449 31.9105 12.0438 31.0603 12.0434C29.328 12.0426 27.5957 12.043 25.8634 12.0434C25.5727 12.0434 25.6192 12.0326 25.5299 12.2844C24.2493 15.8919 22.9705 19.5 21.6905 23.1077C19.9289 28.0726 18.1669 33.0375 16.4051 38.0022C16.0904 38.8889 15.7759 39.7754 15.4612 40.6621C15.4416 40.7172 15.423 40.7724 15.402 40.8269C15.3489 40.9648 15.348 40.967 15.2088 40.9334C14.7518 40.8226 14.3012 40.6887 13.8546 40.5404C11.1098 39.6285 8.66988 38.1749 6.53687 36.1841C4.82227 34.5838 3.4193 32.7324 2.32948 30.6313C1.34093 28.7251 0.666094 26.7088 0.300027 24.584C0.126416 23.5767 0.03371 22.5613 0.0072496 21.5375C-0.0553796 19.1114 0.287653 16.7497 1.0413 14.4511C1.86423 11.9408 3.12063 9.68095 4.79905 7.66988C6.40476 5.74591 8.29296 4.17642 10.4616 2.96552C11.697 2.2757 12.9905 1.72728 14.3412 1.3224C14.4044 1.30346 14.4828 1.24057 14.5361 1.29721C14.5898 1.35424 14.525 1.4308 14.5026 1.49427C12.7191 6.52772 10.9348 11.561 9.1494 16.5936C7.59623 20.9716 6.04174 25.3491 4.48876 29.7273C4.46116 29.8046 4.41775 29.8798 4.43032 29.9661Z" fill="#A9A9A9"/>
<path d="M32.0581 14.7653C32.0731 14.8553 32.0257 14.9299 31.9981 15.0072C31.0027 17.8132 30.0058 20.6188 29.0088 23.4242C28.5767 24.6406 28.1444 25.8567 27.7119 27.0729C27.6371 27.2833 27.6365 27.2836 27.4149 27.2836C26.5079 27.284 25.6008 27.2842 24.6937 27.2836C24.4617 27.2835 24.4603 27.2807 24.5391 27.0587C25.9722 23.0244 27.4052 18.9901 28.8385 14.9559C28.8472 14.9315 28.8585 14.9076 28.8645 14.8826C28.8891 14.7797 28.9464 14.7254 29.0549 14.7385C29.0861 14.7422 29.1183 14.7387 29.1499 14.7387C30.0444 14.7387 30.9389 14.7383 31.8334 14.7395C31.9081 14.7399 31.9855 14.7246 32.0581 14.7653Z" fill="#A9A9A9"/>
</svg>
