<svg width="122" height="42" viewBox="0 0 122 42" fill="none" xmlns="http://www.w3.org/2000/svg">
<path d="M29.6305 14.5834C27.3712 14.5931 25.1118 14.5891 22.8525 14.5891C20.5931 14.5891 18.3338 14.5891 16.0745 14.5891C15.7016 14.5891 15.6999 14.5896 15.6999 14.9847C15.6994 16.1756 15.6994 17.366 15.6999 18.5569C15.7005 18.9325 15.7022 18.9337 16.0661 18.9337C19.1495 18.9331 22.2329 18.9325 25.3163 18.932C25.8586 18.932 25.8109 18.8925 25.7369 19.4128C25.2891 22.5739 23.6393 24.85 20.9038 26.2965C18.8339 27.3913 16.6157 27.6841 14.3224 27.3988C11.498 27.0471 9.1364 25.7539 7.30436 23.5258C4.95278 20.666 4.15929 17.3323 4.81275 13.6754C5.69738 8.72766 9.54537 5.06742 14.228 4.46024C16.1072 4.21669 17.9354 4.40307 19.7107 5.0943C20.9993 5.59628 22.1323 6.35611 23.1564 7.29604C23.2464 7.37894 23.312 7.47442 23.4459 7.33492C24.3517 6.39385 25.263 5.45906 26.1765 4.52656C26.2865 4.41451 26.2643 4.34475 26.1615 4.25385C25.9926 4.10577 25.8331 3.94626 25.6647 3.79703C21.8684 0.430095 17.4675 -0.619608 12.6104 0.339189C8.89524 1.07272 5.82796 3.02405 3.45193 6.05252C0.630805 9.64872 -0.493309 13.7704 0.198496 18.3408C0.832512 22.527 2.86347 25.922 6.13635 28.4759C10.3344 31.7508 15.0531 32.5975 20.1125 31.2665C23.8116 30.2934 26.6532 28.0351 28.4792 24.5727C30.0706 21.5539 30.4134 18.2779 30.0061 14.8995C29.9761 14.6537 29.8706 14.5822 29.6305 14.5834Z" fill="#A9A9A9"/>
<path d="M93.8586 11.9604C92.6367 11.9696 91.4142 11.9678 90.1923 11.9616C90.0067 11.9604 89.9517 12.033 89.9556 12.2131C89.9639 12.5939 89.9606 12.9752 89.955 13.356C89.9539 13.4441 89.9967 13.5624 89.8828 13.6076C89.7756 13.6499 89.7161 13.5533 89.6555 13.4829C89.4527 13.2462 89.2277 13.0324 88.9826 12.8455C87.1095 11.4156 85.014 11.0645 82.7697 11.5448C80.567 12.0164 78.7611 13.1931 77.3425 14.9729C75.2921 17.5451 74.5708 20.501 75.2232 23.7467C75.8572 26.9015 77.6215 29.2525 80.3887 30.7682C82.0935 31.7018 83.9211 32.0586 85.8403 31.7292C87.3312 31.4731 88.6387 30.8253 89.675 29.6613C89.7339 29.595 89.7811 29.4869 89.8972 29.5349C89.9717 29.5658 89.955 29.6476 89.9556 29.7116C89.9628 30.7298 89.9884 31.751 89.79 32.7561C89.5622 33.911 89.1293 34.9704 88.2325 35.7434C86.7449 37.0252 85.014 37.2773 83.192 36.7816C81.5506 36.3351 80.4642 35.1636 79.7274 33.6285C79.638 33.4422 79.5674 33.3724 79.3557 33.465C78.2505 33.951 77.1397 34.4232 76.0272 34.8915C75.8544 34.9641 75.805 35.0321 75.8928 35.2237C76.9941 37.6261 78.7011 39.3848 81.1133 40.3658C83.1037 41.1754 85.1574 41.208 87.2234 40.7369C89.2366 40.2778 90.9158 39.2452 92.151 37.5203C93.4663 35.6833 94.0147 33.5662 94.0603 31.333C94.1242 28.1914 94.0764 25.0468 94.0764 21.9034C94.0836 21.9034 94.0903 21.9034 94.0975 21.9034C94.0975 19.8458 94.0975 17.7887 94.0975 15.731C94.0975 14.5784 94.0964 13.4258 94.0975 12.2732C94.097 12.1022 94.102 11.9587 93.8586 11.9604ZM89.0582 25.6231C87.3006 28.0924 83.9555 28.5453 81.6339 26.6288C80.177 25.4264 79.3901 23.6678 79.3946 21.103C79.4285 19.4701 80.1603 17.6497 81.9034 16.3828C84.4317 14.5446 87.7129 15.2828 89.321 18.0059C90.668 20.2871 90.5568 23.518 89.0582 25.6231Z" fill="#A9A9A9"/>
<path d="M63.4434 11.3423C57.7995 11.3332 53.4436 15.8007 53.4453 21.5963C53.447 27.372 57.7979 31.8435 63.4229 31.851C69.0573 31.8584 73.4238 27.376 73.4188 21.5883C73.4149 15.7961 69.0873 11.3514 63.4434 11.3423ZM67.2781 26.1736C66.214 27.2502 64.926 27.7968 64.058 27.8042C60.7968 27.8014 58.5258 25.8689 57.9718 23.124C57.5661 21.1149 57.8506 19.2219 59.0992 17.5788C61.5686 14.329 66.3457 14.7527 68.2811 18.3689C69.6274 20.884 69.2051 24.224 67.2781 26.1736Z" fill="#A9A9A9"/>
<path d="M41.8557 11.3582C36.0028 11.3616 31.8131 16.0246 31.8859 21.595C31.8059 27.0425 35.9162 31.8073 41.8612 31.8411C47.4646 31.8731 51.8427 27.3638 51.8471 21.6173C51.8516 15.8051 47.5529 11.3547 41.8557 11.3582ZM45.8887 25.9791C44.8141 27.1935 43.4516 27.8046 41.6123 27.8126C39.8431 27.7543 38.2911 26.8601 37.2014 25.1427C35.65 22.6979 35.9773 19.1394 37.9193 17.1012C40.4048 14.493 44.4979 14.8966 46.4605 17.9434C48.0319 20.383 47.8041 23.8162 45.8887 25.9791Z" fill="#A9A9A9"/>
<path d="M108.205 24.5471C110.626 23.5157 113.047 22.4843 115.468 21.4535C117.257 20.6919 119.044 19.9292 120.832 19.1688C121.015 19.0917 121.174 19.0242 121.069 18.7578C120.685 17.7772 120.327 16.7847 119.767 15.8882C117.83 12.7843 115.141 11.0931 111.487 11.3961C107.886 11.6951 105.305 13.6059 103.756 16.9505C102.947 18.6983 102.691 20.5679 102.849 22.494C103.079 25.3138 104.202 27.6808 106.312 29.5109C108.141 31.0981 110.292 31.8104 112.671 31.8516C112.874 31.8379 113.077 31.8219 113.28 31.8099C116.413 31.6252 118.872 30.1656 120.758 27.6248C120.983 27.3212 120.976 27.3029 120.677 27.0976C119.761 26.4682 118.844 25.8393 117.927 25.2109C117.602 24.9885 117.601 24.9897 117.363 25.315C116.153 26.9667 114.581 27.8563 112.531 27.8094C110.516 27.7631 109.037 26.8324 108.035 25.0571C107.844 24.7175 107.851 24.6975 108.205 24.5471ZM107.639 21.079C107.127 21.2974 107.125 21.2945 107.137 20.7285C107.2 17.9047 109.41 15.4777 112.156 15.3085C113.527 15.2239 114.759 15.6544 115.667 16.7944C116.143 17.3919 116.119 17.4565 115.435 17.7487C112.836 18.859 110.237 19.9693 107.639 21.079Z" fill="#A9A9A9"/>
<path d="M100.561 1.17601C99.4228 1.17486 98.2836 1.17544 97.1451 1.17544C96.6861 1.17544 96.6855 1.17601 96.6855 1.63568C96.6855 6.48398 96.6855 11.3317 96.6855 16.18C96.6855 21.066 96.6855 25.9521 96.6855 30.8387C96.6855 31.2189 96.6867 31.2206 97.0467 31.2212C98.232 31.2217 99.4172 31.2126 100.602 31.228C100.887 31.2315 100.961 31.1371 100.961 30.853C100.955 21.0901 100.956 11.3277 100.955 1.56479C100.956 1.17829 100.954 1.17658 100.561 1.17601Z" fill="#A9A9A9"/>
</svg>
